<?xml version="1.0" encoding="UTF-8"?>
<svg id="Layer_1" xmlns="http://www.w3.org/2000/svg" version="1.1" viewBox="0 0 1054.4 210.5">
  <!-- Generator: Adobe Illustrator 29.1.0, SVG Export Plug-In . SVG Version: 2.1.0 Build 142)  -->
  <defs>
    <style>
      .st0 {
        fill: #fe6930;
      }

      .st1 {
        fill: #052e4d;
      }
    </style>
  </defs>
  <g>
    <g>
      <path class="st1" d="M435.8,36.6c11.3,0,20.4,3.7,27.3,11.2,6.9,7.4,10.3,17.4,10.3,29.8v56.2c0,2.5-2,4.5-4.5,4.5h-20.7c-2.5,0-4.5-2-4.5-4.5v-53.6c0-5-1.2-9-3.7-11.9-2.4-2.9-6-4.4-10.6-4.4s-8.7,1.6-11.4,4.9c-2.7,3.3-4.1,7.8-4.1,13.6v51.3c0,2.5-2,4.5-4.5,4.5h-20.7c-2.5,0-4.5-2-4.5-4.5v-53.6c0-5-1.2-9-3.7-11.9-2.4-2.9-6-4.4-10.6-4.4s-8.7,1.6-11.4,4.9c-2.7,3.3-4.1,7.8-4.1,13.6v51.3c0,2.5-2,4.5-4.5,4.5h-20.7c-2.5,0-4.5-2-4.5-4.5V43.8c0-2.5,2-4.5,4.5-4.5h20.7c2.5,0,4.5,2,4.5,4.5v4.6c5.4-7.9,14.2-11.9,26.5-11.9s17.1,3,22.8,9.1c1.7,1.9,4.6,1.9,6.4,0,6-6.1,14.5-9.2,25.4-9.2Z"/>
      <path class="st1" d="M561.7,39.3h20.7c2.5,0,4.5,2,4.5,4.5v89.9c0,2.5-2,4.5-4.5,4.5h-20.7c-2.5,0-4.5-2-4.5-4.5v-1.2c0-1.3-1.5-2-2.4-1.1-6.8,6.3-15.8,9.5-27,9.5s-24.2-5-33.4-15.1c-9.2-10.1-13.8-22.4-13.8-37.1s4.6-27,13.8-37.1c9.2-10.1,20.4-15.1,33.4-15.1s20.2,3.2,27,9.5c.9.9,2.4.2,2.4-1.1v-1.2c0-2.5,2-4.5,4.5-4.5ZM516.7,106.4c4.4,4.3,10,6.5,17,6.5s12.7-2.2,17-6.5c4.4-4.4,6.5-10.2,6.5-17.6s-2.2-13.2-6.5-17.6-10-6.5-17-6.5-12.7,2.2-17,6.5c-4.3,4.4-6.5,10.2-6.5,17.6s2.2,13.2,6.5,17.6Z"/>
      <path class="st1" d="M628,49.9c0,1.5,2,2,2.7.7,2-3.4,4.9-6.1,8.4-8.3s8.6-4.1,13.4-4.7,5.1,1.8,5.1,4.5v23.9c0,2.5-2.1,4.5-4.7,4.4-5.5-.1-10.7,1.3-15.6,4.1-6.3,3.6-9.4,9.9-9.4,18.9v40.2c0,2.5-2,4.5-4.5,4.5h-20.7c-2.5,0-4.5-2-4.5-4.5V43.8c0-2.5,2-4.5,4.5-4.5h20.7c2.5,0,4.5,2,4.5,4.5v6.1Z"/>
      <path class="st1" d="M728,67.8h-11.4c-2.5,0-4.5,2-4.5,4.5v30.5c0,4,1.6,6.5,4.7,7.5,2.5.8,6.1,1.2,11.1,1.1,2.5,0,4.6,2,4.6,4.5v18.2c0,2.3-1.8,4.3-4.1,4.5-16.7,1.3-28.4-.6-35.1-5.8-7.3-5.6-10.9-15.6-10.9-30v-30.5c0-2.5-2-4.5-4.5-4.5h-6.9c-2.5,0-4.5-2-4.5-4.5v-19.5c0-2.5,2-4.5,4.5-4.5h6.9c2.5,0,4.5-2,4.5-4.5v-17.4c0-2,1.3-3.7,3.2-4.3l20.7.2c2.9-.9,5.8,1.3,5.8,4.3v17.2c0,2.5,2,4.5,4.5,4.5h11.4c2.5,0,4.5,2,4.5,4.5v19.5c0,2.5-2,4.5-4.5,4.5Z"/>
      <path class="st1" d="M772.8,100.6c-1.1,0-1.8,1.1-1.4,2.1,3.8,7.8,11.4,11.8,22.8,11.8s12.5-1.8,16.9-5.5c1.4-1.2,3.4-1.3,5-.4l16.3,9.4c2.5,1.4,3,4.8,1.1,6.9-9.6,10.7-22.8,16.1-39.7,16.1s-29.9-4.9-39.8-14.8c-10-9.9-14.9-22.3-14.9-37.4s4.9-27.3,14.7-37.3c9.8-10,22.4-14.9,37.9-14.9s26.3,5,35.9,14.9c9.6,10,14.3,22.4,14.3,37.3s-.2,5.4-.5,8-2.2,3.9-4.5,3.9h-64.2ZM772,78.5h38.4c1,0,1.8-1,1.4-2-3.2-9.1-10-13.6-20.3-13.6s-17.7,4.6-20.9,13.6c-.3,1,.4,2,1.4,2Z"/>
      <path class="st1" d="M902.8,141c-15,0-27.5-5-37.5-15-10-10-14.9-22.4-14.9-37.2s5-27.2,14.9-37.2c10-10,22.4-15,37.5-15s18.2,2.3,26.2,6.9c6.5,3.7,11.7,8.5,15.8,14.2,1.5,2.2.9,5.2-1.4,6.5l-18.1,10.5c-2,1.2-4.5.5-5.9-1.3-3.8-5-9.4-7.6-17.1-7.6s-11.8,2.1-16,6.4c-4.2,4.3-6.3,9.8-6.3,16.5s2.1,12.2,6.3,16.5c4.2,4.3,9.6,6.4,16,6.4s13.4-2.5,17.1-7.5c1.4-1.9,3.9-2.5,5.9-1.4l18,10.3c2.3,1.3,3,4.3,1.4,6.5-4.1,5.8-9.3,10.6-15.8,14.4-7.9,4.6-16.7,6.9-26.3,6.9Z"/>
      <path class="st1" d="M1016.6,36.6c10.5,0,19.3,3.6,26.4,10.9,7.1,7.3,10.6,17.3,10.6,30.1v56.2c0,2.5-2,4.5-4.5,4.5h-20.7c-2.5,0-4.5-2-4.5-4.5v-51.9c0-5.8-1.6-10.2-4.8-13.3-3.2-3.1-7.3-4.6-12.4-4.6s-10.2,1.7-13.4,5.1c-3.3,3.4-4.9,8.5-4.9,15.2v49.5c0,2.5-2,4.5-4.5,4.5h-20.7c-2.5,0-4.5-2-4.5-4.5V5.5c0-2,1.3-3.8,3.3-4.3l20.7.2c2.9-.8,5.7,1.3,5.7,4.3v38.9c0,1.3,1.6,2,2.5,1,6-6,14.5-9.1,25.7-9.1Z"/>
    </g>
    <g>
      <path class="st0" d="M338.9,209.7c-5.1,0-9.3-1.7-12.6-5.1-3.3-3.4-5-7.6-5-12.6s1.7-9.2,5-12.6c3.3-3.4,7.6-5.1,12.6-5.1s5.9.7,8.4,2.1c2,1.1,3.7,2.5,5.1,4.2.6.8.3,1.9-.5,2.4l-3.8,2.2c-.7.4-1.6.2-2.1-.5-.6-.8-1.4-1.4-2.3-1.9-1.4-.7-2.9-1.1-4.7-1.1-3,0-5.4.9-7.2,2.8-1.8,1.8-2.7,4.3-2.7,7.3s.9,5.5,2.7,7.3c1.8,1.8,4.2,2.8,7.2,2.8s3.3-.4,4.7-1.1c1-.5,1.8-1.2,2.4-1.9.5-.6,1.4-.7,2.1-.3l3.8,2.2c.8.5,1.1,1.6.5,2.4-1.3,1.7-3,3.1-5,4.2-2.6,1.4-5.4,2.1-8.5,2.1Z"/>
      <path class="st0" d="M412,204.7c-3.4,3.4-7.6,5.1-12.5,5.1s-9.1-1.7-12.5-5.1c-3.4-3.4-5.1-7.6-5.1-12.6s1.7-9.2,5.1-12.6c3.4-3.4,7.6-5.1,12.5-5.1s9.1,1.7,12.5,5.1c3.4,3.4,5.1,7.6,5.1,12.6s-1.7,9.2-5.1,12.6ZM392.4,199.4c1.9,1.9,4.2,2.8,7.1,2.8s5.2-.9,7.1-2.8c1.9-1.9,2.8-4.3,2.8-7.3s-.9-5.4-2.8-7.3c-1.9-1.9-4.2-2.8-7.1-2.8s-5.2.9-7.1,2.8c-1.9,1.9-2.8,4.3-2.8,7.3s.9,5.4,2.8,7.3Z"/>
      <path class="st0" d="M468.8,175.1h4.4c.9,0,1.7.8,1.7,1.7v30.6c0,.9-.8,1.7-1.7,1.7h-3.3c-.5,0-1.1-.3-1.4-.7l-11.6-16.3c-.3-.4-1-.2-1,.3v15c0,.9-.8,1.7-1.7,1.7h-4.4c-.9,0-1.7-.8-1.7-1.7v-30.6c0-.9.8-1.7,1.7-1.7h3.3c.5,0,1.1.3,1.4.7l11.6,16.3c.3.4,1,.2,1-.3v-15c0-.9.8-1.7,1.7-1.7Z"/>
      <path class="st0" d="M518.7,209.7c-3.5,0-6.3-.8-8.7-2.3-1.9-1.2-3.3-2.8-4.3-4.8-.4-.8,0-1.7.7-2.1l3.9-2.3c.7-.4,1.7-.3,2.2.5,1.4,2.2,3.6,3.4,6.4,3.4s4.6-.9,4.6-2.8-.5-1.8-1.5-2.4c-1-.6-2.8-1.2-5.6-2-1.4-.4-2.7-.8-3.7-1.3-1.1-.5-2.1-1.1-3.1-1.9-1-.8-1.8-1.8-2.3-3-.5-1.2-.8-2.6-.8-4.1,0-3.1,1.1-5.6,3.4-7.5,2.2-1.9,4.9-2.8,8-2.8s5.2.7,7.4,2c1.7,1,3.1,2.5,4.2,4.2.5.8.2,1.8-.6,2.3l-5.1,3c-.6-1.3-1.4-2.3-2.3-2.9-.9-.7-2.1-1-3.6-1s-2.1.3-2.7.8-.9,1.1-.9,1.8.4,1.6,1.2,2.2c.8.6,2.4,1.3,4.9,2,1.4.4,2.4.8,3.2,1,.7.3,1.7.7,2.8,1.3,1.1.6,2,1.2,2.6,1.9.6.7,1.1,1.5,1.6,2.6.5,1.1.7,2.3.7,3.7,0,3.2-1.2,5.8-3.5,7.6-2.3,1.9-5.4,2.8-9.1,2.8Z"/>
      <path class="st0" d="M584.1,206.6c-2.5,2.1-5.6,3.2-9.4,3.2s-7-1-9.4-3.2c-2.5-2.1-3.7-4.9-3.7-8.5v-21.3c0-.9.8-1.7,1.7-1.7h4.4c.9,0,1.7.8,1.7,1.7v20.6c0,3.2,1.8,4.8,5.3,4.8s5.3-1.6,5.3-4.8v-20.6c0-.9.8-1.7,1.7-1.7h4.4c.9,0,1.7.8,1.7,1.7v21.3c0,3.6-1.2,6.4-3.7,8.5Z"/>
      <path class="st0" d="M629.5,201.6h8.8c.9,0,1.7.8,1.7,1.7v4.1c0,.9-.8,1.7-1.7,1.7h-16.5c-.9,0-1.7-.8-1.7-1.7v-30.6c0-.9.8-1.7,1.7-1.7h4.4c.9,0,1.7.8,1.7,1.7v23.1c0,.9.8,1.7,1.7,1.7Z"/>
      <path class="st0" d="M689.4,176.8v4.1c0,.9-.8,1.7-1.7,1.7h-5.4c-.9,0-1.7.8-1.7,1.7v23.1c0,.9-.8,1.7-1.7,1.7h-4.4c-.9,0-1.7-.8-1.7-1.7v-23.1c0-.9-.8-1.7-1.7-1.7h-5.4c-.9,0-1.7-.8-1.7-1.7v-4.1c0-.9.8-1.7,1.7-1.7h21.9c.9,0,1.7.8,1.7,1.7Z"/>
      <path class="st0" d="M721.2,175.1h4.4c.9,0,1.7.8,1.7,1.7v30.6c0,.9-.8,1.7-1.7,1.7h-4.4c-.9,0-1.7-.8-1.7-1.7v-30.6c0-.9.8-1.7,1.7-1.7Z"/>
      <path class="st0" d="M779.2,175.1h6.6c.3,0,.6.3.6.6v32.8c0,.3-.3.6-.6.6h-5c-.2,0-.4,0-.5-.2l-11.9-16.8c-.3-.4-1-.2-1,.3v16.1c0,.3-.3.6-.6.6h-6.6c-.3,0-.6-.3-.6-.6v-32.8c0-.3.3-.6.6-.6h5c.2,0,.4,0,.5.2l11.9,16.8c.3.4,1,.2,1-.3v-16.1c0-.3.3-.6.6-.6Z"/>
      <path class="st0" d="M850.8,190.2c.9,0,1.7.8,1.7,1.7v1.2c0,5.1-1.6,9.1-4.7,12.1-3.2,3-7.2,4.5-12,4.5s-9.6-1.7-13.1-5.1c-3.5-3.4-5.2-7.6-5.2-12.5s1.7-9.1,5.2-12.6c3.4-3.4,7.7-5.1,12.6-5.1s6.1.7,8.7,2.1c2,1.1,3.7,2.4,5,4,.7.8.4,2-.5,2.5l-3.8,2.2c-.7.4-1.5.2-2-.3-.7-.7-1.5-1.3-2.5-1.9-1.5-.7-3.1-1.1-5-1.1-2.9,0-5.3,1-7.2,2.9-1.9,1.9-2.8,4.3-2.8,7.3s1,5.3,2.9,7.2c1.9,1.9,4.5,2.8,7.8,2.8s6.9-1.5,8.4-4.5c.2-.4-.1-.8-.5-.8h-6.5c-.9,0-1.7-.8-1.7-1.7v-3.4c0-.9.8-1.7,1.7-1.7h13.7Z"/>
    </g>
  </g>
  <g>
    <path class="st0" d="M232.3,39.1c15.3,0,27.7,12.4,27.7,27.7v13.8c0,11.8-7.9,21.8-19,25.8-2.5.9-4.8,2.5-6.6,4.6l-14,16.2-12-13.8c-3-3.5-7.5-5.5-12.1-5.5h-2.7c-1.7,0-3.1,1.4-3.1,3.1v6.1c0,1.7,1.4,3.1,3.1,3.1h2.7c1.1,0,2.1.5,2.9,1.3l12.1,14c2.3,2.7,5.6,4.2,9.1,4.2s6.8-1.5,9.1-4.2l14.1-16.4c.4-.5,1-.9,1.5-1.1,16.2-5.5,27.1-20.7,27.1-37.9v-13.3c0-22.1-17.9-40-40-40h-62.9c-5.2,0-10.2,1-14.7,2.8-1.4.5-1.3,2.4.1,2.9,4.6,1.4,9.3,3.3,13.2,5.8s1.9.9,2.9.9h61.4Z"/>
    <g>
      <path class="st1" d="M238.2,73.9c-.6-4.9-3-9.4-6.9-12.5-3.9-3.1-8.8-4.5-13.7-3.9-4.9.6-9.4,3-12.5,6.9-1.1,1.3-1.9,2.8-2.6,4.4-.3.7-.9,1.1-1.6,1.1h-18.5c-.4,0-.7-.2-.8-.6-5.3-16.8-21-29-39.5-29H42.9c-18.6,0-35,12.4-39.9,30.3-.7,2.6-.5,5.4.9,7.6s4.3,3.9,7.3,3.9h189.9c.7,0,1.3.4,1.6,1.1,1.2,2.8,3.1,5.4,5.6,7.3,3.3,2.6,7.4,4,11.5,4s2.2,0,3.3-.3c3.1-.5,6-1.8,8.4-3.8,5.1-4.2,7.5-10.3,6.8-16.6ZM17.5,69.9c-.6,0-1-.7-.8-1.2,4.9-9.7,14.9-16.1,26.1-16.1h99.3c11.4,0,21.3,6.6,26.1,16.1.3.6-.1,1.2-.8,1.2H17.5ZM224.7,80c-1.1,1.3-2.6,2.2-4.2,2.4-1.7.2-3.3-.3-4.7-1.3-1.3-1.1-2.2-2.6-2.4-4.2-.2-1.7.3-3.3,1.3-4.7,1.1-1.3,2.6-2.2,4.2-2.4.2,0,.5,0,.7,0,1.4,0,2.8.5,3.9,1.4,1.3,1.1,2.2,2.6,2.4,4.2s-.3,3.3-1.3,4.7Z"/>
      <path class="st1" d="M171.3,116.5c0,16.1-13.1,29.2-29.2,29.2h-17c-4.9,0-9.6,2.1-12.8,5.9l-17.6,20.2-17.5-20.2c-3.2-3.7-7.9-5.8-12.8-5.8h-21.6c-14.5,0-26.6-10.7-28.8-24.6,0-.5.3-1,.8-1h67.6c.7,0,1.3.4,1.6,1.1,2.9,6.8,9.6,11.4,17.1,11.4s5.6-.6,8.3-1.9c6.1-2.9,10.1-9.2,10.3-15.9.4-11.6-9.6-20.5-20.7-19.2-6.9.8-12.5,5.3-15,11.3-.3.7-.9,1.1-1.6,1.1H10c-4.8,0-8.6,3.9-8.6,8.6,0,22.9,18.6,41.5,41.4,41.5h21.6c1.3,0,2.6.6,3.5,1.6l17.5,20.2c2.3,2.7,5.8,4.3,9.3,4.3h0c3.6,0,7-1.6,9.3-4.3l17.5-20.2c.9-1,2.2-1.6,3.5-1.6h17c22.9,0,41.4-18.6,41.4-41.4v-19c0-1.7-1.4-3.1-3.1-3.1h-6.1c-1.7,0-3.1,1.4-3.1,3.1v19ZM100.5,107.7c.2,0,.5,0,.7,0,3.2,0,5.9,2.4,6.3,5.6.4,3.5-2.1,6.6-5.6,7-1.7.2-3.3-.3-4.7-1.3s-2.2-2.6-2.4-4.2c-.4-3.5,2.1-6.6,5.6-7Z"/>
    </g>
  </g>
</svg>